# xmcd
#
# Track frame offsets:
# 150
# 9731
# 24488
# 42893
# 57977
# 71935
# 85260
# 106400
# 119980
# 138514
# 169711
#
# Disc length: 2489 seconds
#
#
# Revision: 3
# Processed by: cddbd v1.5.1PL0 Copyright (c) Steve Scherf et al.
# Submitted via: FreeRIP 2.11 
#
DISCID=9e09b70b
DTITLE=Divokej Bill - mezi nima
DYEAR=1900
DGENRE=Alt. Rock
TTITLE0=Bagdad
TTITLE1=Pocit
TTITLE2=Znameni
TTITLE3=Malovani
TTITLE4=Kvuli holkam
TTITLE5=Vokna
TTITLE6=Armada
TTITLE7=Mrazik
TTITLE8=Kolem Tebe
TTITLE9=Kotle
TTITLE10=Na Tvy louce zeleny
EXTD=malování
EXTT0=
EXTT1=
EXTT2=
EXTT3=
EXTT4=
EXTT5=
EXTT6=
EXTT7=
EXTT8=
EXTT9=
EXTT10=
PLAYORDER=
